{"title":"Cliffhanger 1993 1080p x264-alrmothe","uid":8529015,"size":7265554273,"categoryP":"video","categoryS":"hd___movies","magnet":"?xt=urn:btih:bd9ee45829b76e74c49cfcb5e7db630750cbb5c2&amp;dn=Cliffhanger+1993+1080p+x264-alrmothe&amp;tr=udp%3A%2F%2Ftracker.openbittorrent.com%3A80&amp;tr=udp%3A%2F%2Fopen.demonii.com%3A1337&amp;tr=udp%3A%2F%2Ftracker.coppersurfer.tk%3A6969&amp;tr=udp%3A%2F%2Fexodus.desync.com%3A6969","seeders":1,"leechers":0,"uploader":".alrmothe","files":23,"time":1370098471,"description":"******************************************************\n\nCliffhanger 1993 1080p x264-alrmothe\n\n******************************************************\n\nTitle : Action | Adventure | Thriller \nYEAR: 1993\nGENRE :   Adventure | Family | Fantasy       \nimdb URL http://www.imdb.com/title/tt0106582/\nOverall bit rate: 8540 kbps\nFormat version: Version 4 / Version 2\nFile size:  6.72 GiB\nDuration:  1h 52mn\nSub:English, English SDH, French\nsample:Yes\n******************************************************\n\nVideo\nFormat: Matroska\nFormat : AVC \nFormat/Info : Advanced Video Codec \nFormat profile : &lt;a class=&quot;__cf_email__&quot; href=&quot;/cdn-cgi/l/email-protection&quot; data-cfemail=&quot;3179585659717d051f00&quot;&gt;[email&amp;#160;protected]&lt;/a&gt;&lt;script cf-hash='f9e31' type=&quot;text/javascript&quot;&gt;\n/* &lt;![CDATA[ */!function(){try{var t=&quot;currentScript&quot;in document?document.currentScript:function(){for(var t=document.getElementsByTagName(&quot;script&quot;),e=t.length;e--;)if(t[e].getAttribute(&quot;cf-hash&quot;))return t[e]}();if(t&amp;&amp;t.previousSibling){var e,r,n,i,c=t.previousSibling,a=c.getAttribute(&quot;data-cfemail&quot;);if(a){for(e=&quot;&quot;,r=parseInt(a.substr(0,2),16),n=2;a.length-n;n+=2)i=parseInt(a.substr(n,2),16)^r,e+=String.fromCharCode(i);e=document.createTextNode(e),c.parentNode.replaceChild(e,c)}}}catch(u){}}();/* ]]&gt; */&lt;/script&gt; \nFormat settings, CABAC : Yes \nFormat settings, ReFrames : 4 frames  \nCodec ID : V_MPEG4/ISO/AVC  \nBit rate : 9000 kbps \nWidth : 1920 pixels \nHeight : 798 pixels \nDisplay aspect ratio : 2:40:1 \nFrame rate : 23.976 fps \nColor space : YUV \nChroma subsampling : 4:2:0 \nBit depth : 8 bits \nScan type : Progressive \nBits/(Pixel*Frame) : 0.215 \nStream size: 6.09 GiB \n\n\nAudio \nFormat: Ac3\nBit rate :640 Kbps\nChannel(s) : 6 channels\nChannel positions:Front: L C R, Side: L R, LFE\nSampling rate: 48.0 KHz\nBit depth: 16 bits\nCompression mode: Lossy\nStream size: 516 GiB\nLanguage : English\n\n******************************************************\n\nScreenshots &lt;a href=&quot;\nhttp://img521.imageshack.us/img521/4052/vlcsnap2013060115h13m59.png&quot; rel=&quot;nofollow&quot; target=&quot;_NEW&quot;&gt;\nhttp://img521.imageshack.us/img521/4052/vlcsnap2013060115h13m59.png&lt;/a&gt; &lt;a href=&quot;\nhttp://img690.imageshack.us/img690/1492/vlcsnap2013060115h14m08.png&quot; rel=&quot;nofollow&quot; target=&quot;_NEW&quot;&gt;\nhttp://img690.imageshack.us/img690/1492/vlcsnap2013060115h14m08.png&lt;/a&gt; &lt;a href=&quot;\nhttp://img198.imageshack.us/img198/1443/vlcsnap2013060115h16m13.png&quot; rel=&quot;nofollow&quot; target=&quot;_NEW&quot;&gt;\nhttp://img198.imageshack.us/img198/1443/vlcsnap2013060115h16m13.png&lt;/a&gt;\n\n\n\n\n[c]Use KMPlayer for the best quality]\n\n\n\n\n[code]http://p2pdl.com:2710/announce &lt;a href=&quot;\nhttp://exodus.desync.com:6969/announce&quot; rel=&quot;nofollow&quot; target=&quot;_NEW&quot;&gt;\nhttp://exodus.desync.com:6969/announce&lt;/a&gt;\nudp://tracker.openbittorrent.com:80/announce\nudp://tracker.istole.it:80/announce\nudp://tracker.publicbt.com:80/announce\nudp://10.rarbg.me:80/announce &lt;a href=&quot;\nhttp://bt.poletracker.org:2710/announce&quot; rel=&quot;nofollow&quot; target=&quot;_NEW&quot;&gt;\nhttp://bt.poletracker.org:2710/announce&lt;/a&gt;\nudp://ipv4.tracker.harry.lu:80/announce &lt;a href=&quot;\nhttp://94.228.192.98/announce&quot; rel=&quot;nofollow&quot; target=&quot;_NEW&quot;&gt;\nhttp://94.228.192.98/announce&lt;/a&gt; &lt;a href=&quot;\nhttp://announce.opensharing.org:2710/announce&quot; rel=&quot;nofollow&quot; target=&quot;_NEW&quot;&gt;\nhttp://announce.opensharing.org:2710/announce&lt;/a&gt;\nudp://tracker.beeimg.com:6969/announce\n[/code]\n\n\n\n.","torrent":{"xt":"urn:btih:bd9ee45829b76e74c49cfcb5e7db630750cbb5c2","amp;dn":"Cliffhanger+1993+1080p+x264-alrmothe","amp;tr":["udp%3A%2F%2Ftracker.openbittorrent.com%3A80","udp%3A%2F%2Fopen.demonii.com%3A1337","udp%3A%2F%2Ftracker.coppersurfer.tk%3A6969","udp%3A%2F%2Fexodus.desync.com%3A6969"],"infoHash":"bd9ee45829b76e74c49cfcb5e7db630750cbb5c2","infoHashBuffer":{"type":"Buffer","data":[189,158,228,88,41,183,110,116,196,156,252,181,231,219,99,7,80,203,181,194]},"announce":[],"urlList":[]}}